<?xml version="1.0" encoding="UTF-8"?>
<svg version="1.1" xmlns="http://www.w3.org/2000/svg" width="1024" height="1024">
<path d="M0 0 C183.48 0 366.96 0 556 0 C556 52.47 556 104.94 556 159 C551.85929965 160.03517509 549.78099735 159.56303759 545.734375 158.609375 C531.78793538 155.50131131 517.81065712 155.72264281 503.58959961 155.79418945 C499.78297336 155.81264314 495.97658856 155.81469728 492.16992188 155.81445312 C489.74478956 155.8193624 487.31965888 155.82518812 484.89453125 155.83203125 C483.75917435 155.83314407 482.62381744 155.8342569 481.45405579 155.83540344 C479.87542 155.84497322 479.87542 155.84497322 478.26489258 155.85473633 C477.34194901 155.85854813 476.41900543 155.86235992 475.46809387 155.86628723 C473.16243155 155.99120002 471.21503469 156.38164934 469 157 C467.39501327 157.17444395 465.78613713 157.31493973 464.17578125 157.4296875 C463.23798828 157.50106934 462.30019531 157.57245117 461.33398438 157.64599609 C460.33689453 157.72156738 459.33980469 157.79713867 458.3125 157.875 C443.78732228 159.06875678 430.07793443 161.48652579 416.02783203 165.44091797 C413.02717259 166.26821271 410.01149043 167.03493104 406.99682617 167.80932617 C389.38448174 172.0571624 389.38448174 172.0571624 372.80078125 179.09375 C370.00592812 180.50027045 367.06421404 181.37604966 364.078125 182.2890625 C361.95468236 182.95695861 361.95468236 182.95695861 359.921875 184.0859375 C358 185 358 185 355 185 C355 185.66 355 186.32 355 187 C353.02 187.33 351.04 187.66 349 188 C349 188.66 349 189.32 349 190 C348.36578125 190.22171875 347.7315625 190.4434375 347.078125 190.671875 C332.65871545 196.16877698 319.42425942 204.94745572 307 214 C304.69571124 215.63685403 302.38023854 217.25726887 300.0625 218.875 C299.50570557 219.26905029 298.94891113 219.66310059 298.37524414 220.0690918 C295.9158064 221.78688425 293.8664259 223.0445247 291 224 C291 224.66 291 225.32 291 226 C289.68 226.33 288.36 226.66 287 227 C287 227.66 287 228.32 287 229 C285.48828125 230.3046875 285.48828125 230.3046875 283.3125 231.875 C278.324117 235.61628725 273.83595029 239.77627935 269.34301758 244.08740234 C265.20931642 248 265.20931642 248 263 248 C263 248.66 263 249.32 263 250 C261.34614767 251.34919532 259.678298 252.68133728 258 254 C257.34 254.99 256.68 255.98 256 257 C255.34 257 254.68 257 254 257 C253.67 257.99 253.34 258.98 253 260 C252.34 260 251.68 260 251 260 C250.731875 260.58265625 250.46375 261.1653125 250.1875 261.765625 C248.98519009 264.02786601 247.66174087 265.80576318 246 267.75 C245.484375 268.36359375 244.96875 268.9771875 244.4375 269.609375 C243 271 243 271 241 271 C240.731875 271.57234375 240.46375 272.1446875 240.1875 272.734375 C238.95867364 275.07884634 237.57477824 277.12404938 236 279.25 C235.2265625 280.30960937 235.2265625 280.30960937 234.4375 281.390625 C233.963125 281.92171875 233.48875 282.4528125 233 283 C232.34 283 231.68 283 231 283 C230.77183594 283.51691406 230.54367187 284.03382813 230.30859375 284.56640625 C228.51681498 287.8985799 226.28904404 290.88845195 224.0625 293.9375 C220.5033905 298.81873818 220.5033905 298.81873818 217.30859375 303.94140625 C216.87675781 304.62074219 216.44492187 305.30007813 216 306 C215.34 306 214.68 306 214 306 C213.773125 306.639375 213.54625 307.27875 213.3125 307.9375 C211.51434174 312.13320261 209.26095979 316.03900556 207 320 C206.34 320 205.68 320 205 320 C204.34 322.31 203.68 324.62 203 327 C202.34 327 201.68 327 201 327 C200.62875 328.5159375 200.62875 328.5159375 200.25 330.0625 C199.32654528 333.27230122 197.9886901 335.93886812 196.26171875 338.80859375 C189.87421262 349.90268334 182.90428524 362.51157345 180 375 C179.34 375 178.68 375 178 375 C177.938125 375.886875 177.87625 376.77375 177.8125 377.6875 C177.29577108 381.37103899 176.0722831 384.55503345 174.6875 388 C171.83735606 395.20679254 169.82847619 402.47933085 168 410 C167.7716748 410.91942383 167.54334961 411.83884766 167.30810547 412.78613281 C164.27765572 425.05402514 161.6159764 437.32015735 159.6875 449.8125 C159.52830078 450.84221924 159.36910156 451.87193848 159.20507812 452.93286133 C157.19277057 466.65888207 156.81354965 480.25983135 156.81469727 494.1081543 C156.81252228 497.0325401 156.79433657 499.95654046 156.77539062 502.88085938 C156.72462571 519.57468553 158.04081036 535.92542731 160.9375 552.375 C161.19635986 553.88187378 161.19635986 553.88187378 161.46044922 555.41918945 C163.71581309 569.48495511 163.71581309 569.48495511 168 583 C168.95038086 586.16793622 169.83055078 589.33945246 170.65234375 592.54296875 C170.89082031 593.45691406 171.12929688 594.37085938 171.375 595.3125 C171.58898437 596.15425781 171.80296875 596.99601563 172.0234375 597.86328125 C173.14200702 601.45612654 174.51615245 604.89532662 175.93408203 608.37915039 C176.93069782 610.82960172 177.89993241 613.28870739 178.859375 615.75390625 C182.11464839 624.05946475 185.47058648 632.29224951 189.25 640.375 C189.56678711 641.05763916 189.88357422 641.74027832 190.20996094 642.44360352 C192.16472044 646.54952149 194.43170396 650.2352287 197 654 C197.98159312 655.73706008 198.9407336 657.48703402 199.875 659.25 C202.33698544 663.8365414 204.95379377 668.29131364 207.703125 672.7109375 C209.04421397 675.07804032 210.04669117 677.4548453 211 680 C211.66 680 212.32 680 213 680 C213.33 681.32 213.66 682.64 214 684 C214.66 684 215.32 684 216 684 C216.556875 685.01964844 217.11375 686.03929687 217.6875 687.08984375 C219.83532943 690.84195104 222.29954423 694.19390536 225 697.5625 C225.47348877 698.15820801 225.94697754 698.75391602 226.43481445 699.36767578 C238.97575027 715.29587803 238.97575027 715.29587803 253.6875 729.125 C256.61341655 731.49736477 258.71736181 733.99996123 261 737 C261 737.66 261 738.32 261 739 C174.87 739 88.74 739 0 739 C0 495.13 0 251.26 0 0 Z " fill="#027DFD" transform="translate(155,147)"/>
<path d="M0 0 C0.86447754 0.15065918 1.72895508 0.30131836 2.61962891 0.45654297 C14.33192274 2.56998646 25.64483723 5.46275289 37 9 C38.77045281 9.50134573 40.54122552 10.00156505 42.3125 10.5 C51.81017554 13.38920886 60.6681722 17.72357754 69.48095703 22.2331543 C72.93388917 23.99674867 76.36917632 25.63581769 80 27 C80 27.66 80 28.32 80 29 C80.7115625 29.09539062 81.423125 29.19078125 82.15625 29.2890625 C85.46963336 30.11740834 87.66214754 31.48575552 90.5 33.375 C93.25515072 35.19370905 95.96648746 36.98112618 98.84375 38.6015625 C99.5553125 39.06304687 100.266875 39.52453125 101 40 C101 40.66 101 41.32 101 42 C101.68964844 42.22816406 102.37929688 42.45632813 103.08984375 42.69140625 C106.65535499 44.29468983 109.52813794 46.51769228 112.5625 48.9375 C113.68870813 49.82173427 114.81500801 50.70585168 115.94140625 51.58984375 C116.95074219 52.38519531 117.96007812 53.18054688 119 54 C120.18916016 54.83724609 120.18916016 54.83724609 121.40234375 55.69140625 C121.92957031 56.12324219 122.45679688 56.55507813 123 57 C123 57.66 123 58.32 123 59 C123.84776001 59.36206543 123.84776001 59.36206543 124.71264648 59.73144531 C129.53587532 62.40638362 133.20247785 66.86710763 137.0625 70.75 C137.53531403 71.2243045 138.00812805 71.69860901 138.49526978 72.18728638 C145.96678369 79.70130705 152.82670034 87.39073601 159 96 C159.89927468 97.22820512 160.79902752 98.45606025 161.69921875 99.68359375 C174 116.57580859 174 116.57580859 174 121 C174.66 121 175.32 121 176 121 C176.55429687 122.18078125 177.10859375 123.3615625 177.6796875 124.578125 C178.41143263 126.13542874 179.14320489 127.69271974 179.875 129.25 C180.23980469 130.02730469 180.60460937 130.80460938 180.98046875 131.60546875 C181.33496094 132.35957031 181.68945312 133.11367188 182.0546875 133.890625 C182.37937012 134.58188477 182.70405273 135.27314453 183.03857422 135.98535156 C183.69674222 137.36452941 184.39339116 138.72581269 185.12158203 140.06933594 C186 142 186 142 186 145 C186.66 145 187.32 145 188 145 C188.38671875 146.18335938 188.7734375 147.36671875 189.171875 148.5859375 C192.43395227 158.64421966 192.43395227 158.64421966 196.25 168.5 C197.91842455 172.49597978 198.76436135 176.38988676 199.49609375 180.6484375 C199.97582979 182.88720567 200.67662978 184.67681858 201.625 186.75 C203 191 203 191 203 205 C108.95 205 14.9 205 -82 205 C-82 297.73 -82 390.46 -82 486 C-96.64880703 484.87316869 -96.64880703 484.87316869 -103.1875 483.125 C-103.86329102 482.94573975 -104.53908203 482.76647949 -105.23535156 482.58178711 C-107.16015423 482.06652728 -109.08026198 481.53382012 -111 481 C-112.39412109 480.62681641 -112.39412109 480.62681641 -113.81640625 480.24609375 C-134.04486082 474.56394359 -153.2305353 464.01822981 -171 453 C-171.67047363 452.58717773 -172.34094727 452.17435547 -173.03173828 451.74902344 C-175.00623543 450.52935565 -176.97311412 449.29837358 -178.9375 448.0625 C-179.85184814 447.49631958 -179.85184814 447.49631958 -180.78466797 446.91870117 C-182.22581627 446.00002672 -183.61883804 445.00660957 -185 444 C-185 443.34 -185 442.68 -185 442 C-186.32 441.67 -187.64 441.34 -189 441 C-189 440.34 -189 439.68 -189 439 C-189.721875 438.76023437 -190.44375 438.52046875 -191.1875 438.2734375 C-194.40508721 436.81658551 -196.43203525 435.04049184 -199 432.625 C-201.5115328 430.27828654 -203.99420934 428.00459549 -206.6875 425.8671875 C-209.22412606 423.81903335 -210.96784611 421.54019237 -213 419 C-213.825 418.360625 -214.65 417.72125 -215.5 417.0625 C-218.37463471 414.69092636 -219.94056983 412.08914525 -222 409 C-222.886875 408.29875 -223.77375 407.5975 -224.6875 406.875 C-227.13130744 404.89353451 -227.67201637 404.06118051 -228 401 C-228.66 401 -229.32 401 -230 401 C-230.2475 400.4225 -230.495 399.845 -230.75 399.25 C-231.91727158 396.89279141 -231.91727158 396.89279141 -234 395.0625 C-236.17463005 392.81991276 -237.02073226 390.93780321 -238 388 C-238.66 388 -239.32 388 -240 388 C-241.47309111 385.89980986 -242.81309635 383.82232271 -244.125 381.625 C-244.68380859 380.72007812 -244.68380859 380.72007812 -245.25390625 379.796875 C-248 375.27034684 -248 375.27034684 -248 373 C-248.66 373 -249.32 373 -250 373 C-254.20292348 365.42877614 -258.16915761 357.76553292 -262 350 C-262.38671875 349.28714844 -262.7734375 348.57429688 -263.171875 347.83984375 C-264 346 -264 346 -264 343 C-264.66 343 -265.32 343 -266 343 C-271.95703125 325.12890625 -271.95703125 325.12890625 -273.01220703 321.95654297 C-273.6169824 320.14640215 -274.22625372 318.33774607 -274.84326172 316.53173828 C-292.30696003 265.23701903 -288.63338982 204.06514405 -269 154 C-268.34 154 -267.68 154 -267 154 C-266.67 151.69 -266.34 149.38 -266 147 C-265.34 147 -264.68 147 -264 147 C-263.67 144.69 -263.34 142.38 -263 140 C-262.34 140 -261.68 140 -261 140 C-260.90847656 139.32582031 -260.81695312 138.65164063 -260.72265625 137.95703125 C-259.81647225 134.24902428 -258.18716901 131.05171507 -256.4375 127.6875 C-256.10814453 127.04232422 -255.77878906 126.39714844 -255.43945312 125.73242188 C-254.63175745 124.15214772 -253.81662387 122.57567895 -253 121 C-252.34 121 -251.68 121 -251 121 C-250.896875 120.443125 -250.79375 119.88625 -250.6875 119.3125 C-247.92683414 110.02662393 -239.80954038 101.56162399 -234 94 C-233.32066406 93.08992188 -232.64132812 92.17984375 -231.94140625 91.2421875 C-231.32136719 90.41976562 -230.70132813 89.59734375 -230.0625 88.75 C-229.51722656 88.02296875 -228.97195313 87.2959375 -228.41015625 86.546875 C-227.94480469 86.03640625 -227.47945313 85.5259375 -227 85 C-226.34 85 -225.68 85 -225 85 C-224.71125 84.401875 -224.4225 83.80375 -224.125 83.1875 C-223 81 -223 81 -221 78 C-220.34 78 -219.68 78 -219 78 C-218.505 76.515 -218.505 76.515 -218 75 C-217.34 75 -216.68 75 -216 75 C-215.5978125 74.1028125 -215.5978125 74.1028125 -215.1875 73.1875 C-214.00082594 71.00152146 -212.90400887 69.58667406 -211 68 C-210.34 68 -209.68 68 -209 68 C-209 67.34 -209 66.68 -209 66 C-207.70703125 64.66015625 -207.70703125 64.66015625 -205.8125 63.0625 C-205.0803125 62.44246094 -204.348125 61.82242188 -203.59375 61.18359375 C-202.7378125 60.46300781 -201.881875 59.74242187 -201 59 C-200.0203125 58.14535156 -199.040625 57.29070312 -198.03125 56.41015625 C-177.99291283 39 -177.99291283 39 -173 39 C-173 38.34 -173 37.68 -173 37 C-166.13462267 33.13348688 -166.13462267 33.13348688 -163.34887695 31.57055664 C-160.23682827 29.82445321 -157.12881767 28.07443554 -154.0390625 26.2890625 C-153.26304687 25.84304688 -152.48703125 25.39703125 -151.6875 24.9375 C-150.70330078 24.36322266 -150.70330078 24.36322266 -149.69921875 23.77734375 C-148 23 -148 23 -145 23 C-145 22.34 -145 21.68 -145 21 C-128.61715449 13.82253639 -111.85202691 7.91796005 -94.48876953 3.62451172 C-92.21996378 3.05519593 -89.96838552 2.4428306 -87.71484375 1.81640625 C-60.45906794 -5.41065013 -27.58193961 -4.85688779 0 0 Z " fill="#027DFD" transform="translate(688,397)"/>
<path d="M0 0 C0.75680018 0.00582568 1.51360037 0.01165137 2.29333389 0.01765358 C3.49646156 0.01509031 3.49646156 0.01509031 4.72389483 0.01247525 C7.42640092 0.0091665 10.12866174 0.02020669 12.83114517 0.03111184 C14.76245004 0.03167565 16.69375534 0.03135997 18.62505996 0.03022683 C23.88100951 0.02965115 29.13686845 0.04144009 34.39279687 0.05537474 C39.88077643 0.06784645 45.36875788 0.06904978 50.85674942 0.07142556 C61.25483092 0.07765082 71.65287056 0.09407576 82.0509336 0.11412454 C93.88629913 0.13645104 105.72166663 0.14746878 117.55704796 0.15751541 C141.90869085 0.1784411 166.26029653 0.21363735 190.61190689 0.25816262 C190.64834489 2.33550564 190.67432251 4.41303388 190.69589126 6.49058449 C190.71927566 8.22592446 190.71927566 8.22592446 190.74313247 9.9963218 C190.59886961 13.5822268 189.88119888 16.16654393 188.43612564 19.40269387 C187.5494233 21.39882471 186.93098998 23.37765867 186.33065689 25.47691262 C186.12827407 26.18202981 185.92589126 26.88714699 185.71737564 27.61363137 C185.4176686 28.67517434 185.4176686 28.67517434 185.11190689 29.75816262 C182.40605949 39.34209951 178.81177899 48.23312729 174.61190689 57.25816262 C173.93070998 58.76067281 173.24973742 60.26328472 172.56893814 61.76597512 C168.64719634 70.32881624 164.63971528 78.33043026 159.14315689 86.00816262 C157.45882006 88.26355233 157.45882006 88.26355233 156.61190689 91.25816262 C155.95190689 91.25816262 155.29190689 91.25816262 154.61190689 91.25816262 C154.34378189 91.98003762 154.07565689 92.70191262 153.79940689 93.44566262 C150.73866745 100.69478234 150.73866745 100.69478234 147.61190689 102.25816262 C147.28190689 103.24816262 146.95190689 104.23816262 146.61190689 105.25816262 C145.95190689 105.25816262 145.29190689 105.25816262 144.61190689 105.25816262 C144.27159439 106.03160012 144.27159439 106.03160012 143.92440689 106.82066262 C140.93559592 112.37131155 137.18055142 116.91795031 132.61190689 121.25816262 C129.85129038 123.94799409 127.25138881 126.66427639 124.79940689 129.63316262 C120.88053506 134.26271069 116.45398948 139.31080175 110.61190689 141.25816262 C110.30253189 141.87691262 109.99315689 142.49566262 109.67440689 143.13316262 C108.39384686 145.69428266 107.0202379 146.75295574 104.61190689 148.25816262 C103.95190689 148.25816262 103.29190689 148.25816262 102.61190689 148.25816262 C102.61190689 148.91816262 102.61190689 149.57816262 102.61190689 150.25816262 C101.29190689 150.58816262 99.97190689 150.91816262 98.61190689 151.25816262 C98.61190689 151.91816262 98.61190689 152.57816262 98.61190689 153.25816262 C96.77153466 154.66706002 94.86218985 155.98656559 92.92440689 157.25816262 C91.8686647 157.95941262 90.81292251 158.66066262 89.72518814 159.38316262 C87.04744086 160.99585859 84.54686445 162.21268608 81.61190689 163.25816262 C81.61190689 163.91816262 81.61190689 164.57816262 81.61190689 165.25816262 C79.19784439 166.87925637 79.19784439 166.87925637 75.98690689 168.69566262 C74.94276626 169.29249856 73.89862564 169.88933449 72.82284439 170.50425637 C64.11970199 175.25816262 64.11970199 175.25816262 61.61190689 175.25816262 C61.61190689 175.91816262 61.61190689 176.57816262 61.61190689 177.25816262 C60.87327407 177.56109231 60.13464126 177.86402199 59.37362564 178.17613137 C54.4149248 180.22387949 49.50391251 182.29605459 44.67440689 184.63316262 C36.70717905 188.29785548 28.30052257 190.85633649 19.9551686 193.50962746 C18.06569244 194.11320466 16.18327995 194.73886944 14.30331314 195.37144387 C9.1950852 196.97298338 4.66025789 197.37787154 -0.70449936 197.32456887 C-2.58504014 197.31018776 -2.58504014 197.31018776 -4.50357163 197.29551613 C-5.93140976 197.27702614 -5.93140976 197.27702614 -7.38809311 197.25816262 C-7.43475605 171.8678705 -7.4700539 146.47758478 -7.49171746 121.08725846 C-7.50204232 109.29883435 -7.5161257 97.51043684 -7.53897202 85.72202981 C-7.55886893 75.45060832 -7.57180074 65.17920609 -7.5762701 54.90776587 C-7.57888377 49.46609557 -7.58505199 44.02448037 -7.59955323 38.58282769 C-7.61307878 33.46608432 -7.617326 28.34941901 -7.61430848 23.23265946 C-7.6148609 21.3500283 -7.61886816 19.46739466 -7.62650406 17.5847789 C-7.63638677 15.02363039 -7.63408663 12.46278051 -7.62860215 9.90162575 C-7.63442783 9.14871652 -7.64025351 8.39580728 -7.64625573 7.62008262 C-7.60909038 1.24328801 -6.37078236 0.03694197 0 0 Z " fill="#027DFD" transform="translate(700.3880931138992,688.7418373823166)"/>
</svg>
